<svg xmlns="http://www.w3.org/2000/svg" viewBox="0 0 1024 1024" width="1024" height="1024">
	<style>
		tspan { white-space:pre }
		.shp0 { fill: #cf1322 } 
		.shp1 { fill: #ffffff } 
	</style>
	<path id="Background" class="shp0" d="M0 0L1024 0L1024 1024L0 1024L0 0Z" />
	<g id="flower">
		<path id="Layer" fill-rule="evenodd" class="shp1" d="M467.18 743.57C450.39 771.56 396.27 790.22 340.29 792.09C291.78 793.95 245.13 786.49 205.94 792.09C211.54 762.23 205.94 724.91 205.94 687.59C200.34 603.62 219 553.24 254.46 527.12C291.78 499.13 366.42 486.06 472.78 480.47C476.44 504.29 489.11 515.52 510.78 517.68C534.24 513.86 545.27 501.13 547.34 479.5C545.26 456.55 532.89 445.57 511.88 441.6C511.91 442.11 511.94 442.63 511.97 443.15C487.71 445.01 474.64 458.07 472.78 480.47C355.22 471.14 274.98 456.21 246.99 431.95C219 415.16 202.21 361.04 202.21 305.06C200.34 256.55 209.67 208.03 204.08 170.71C233.93 176.31 271.25 172.58 308.57 172.58C392.54 166.98 441.06 187.5 467.18 222.96C493.89 258.57 505.31 328.18 511.16 428.53C520.55 319.7 535.26 244.31 558.62 217.36C577.28 189.37 631.39 172.58 687.37 172.58C735.88 170.71 782.54 180.04 821.72 174.44C816.12 204.3 819.86 241.62 819.86 278.94C823.59 362.91 803.06 411.42 767.61 437.55C732.34 464 663.76 475.45 565.01 479.78C672.98 487.42 746.63 500.36 773.21 523.38C803.06 540.18 821.72 594.29 821.72 648.41C823.59 698.79 816.12 745.44 823.59 784.62C793.73 779.03 754.55 782.76 719.09 784.62C633.26 790.22 584.74 771.56 558.62 736.11C531.81 700.37 518.7 630.42 511.08 531.16C503.48 641.43 490.51 716.66 467.18 743.57ZM429.86 654C448.52 614.82 463.45 571.9 467.18 527.12C422.4 532.71 375.75 547.64 327.23 568.17C297.38 581.23 282.45 598.02 288.05 622.28C299.24 642.81 323.5 644.67 364.55 627.88C347.76 670.8 347.76 700.65 373.88 704.39C392.54 706.25 411.2 691.32 429.86 654ZM336.56 394.63C377.61 415.16 418.67 430.08 463.45 435.68C457.85 390.9 446.66 344.25 426.13 293.87C413.07 265.88 396.27 249.08 372.01 254.68C351.49 265.88 349.62 290.13 364.55 331.19C321.63 312.53 291.78 312.53 288.05 338.65C286.18 359.18 301.11 377.84 336.56 394.63ZM595.94 306.93C575.41 347.98 560.48 389.03 554.88 433.82C599.67 428.22 646.32 415.16 696.7 396.5C724.69 383.43 741.48 366.64 735.88 342.38C726.56 321.86 700.43 319.99 659.38 334.92C678.04 292 678.04 262.14 651.91 258.41C633.26 256.55 614.6 269.61 595.94 306.93ZM685.5 560.7C644.45 542.04 603.4 527.12 558.62 523.38C564.21 568.17 577.28 614.82 597.8 663.33C610.86 693.19 629.52 708.12 653.78 702.52C674.31 691.32 676.17 667.07 659.38 626.01C702.3 642.81 732.15 642.81 735.88 616.68C737.75 598.02 722.82 579.36 685.5 560.7Z" />
	</g>
</svg>